<svg width="43" height="39" viewBox="0 0 43 39" fill="none" xmlns="http://www.w3.org/2000/svg">
<path d="M21.4997 4.98356C20.6709 4.98356 19.876 5.3128 19.2899 5.89885C18.7039 6.4849 18.3747 7.27976 18.3747 8.10856C18.3747 8.93736 18.7039 9.73222 19.2899 10.3183C19.876 10.9043 20.6709 11.2336 21.4997 11.2336C22.3285 11.2336 23.1233 10.9043 23.7094 10.3183C24.2954 9.73222 24.6247 8.93736 24.6247 8.10856C24.6247 7.27976 24.2954 6.4849 23.7094 5.89885C23.1233 5.3128 22.3285 4.98356 21.4997 4.98356ZM14.208 8.10856C14.208 7.15101 14.3966 6.20283 14.763 5.31816C15.1295 4.43349 15.6666 3.62967 16.3437 2.95257C17.0208 2.27548 17.8246 1.73838 18.7093 1.37194C19.5939 1.0055 20.5421 0.816895 21.4997 0.816895C22.4572 0.816895 23.4054 1.0055 24.2901 1.37194C25.1747 1.73838 25.9785 2.27548 26.6556 2.95257C27.3327 3.62967 27.8698 4.43349 28.2363 5.31816C28.6027 6.20283 28.7913 7.15101 28.7913 8.10856C28.7913 10.0424 28.0231 11.8971 26.6556 13.2645C25.2882 14.632 23.4335 15.4002 21.4997 15.4002C19.5658 15.4002 17.7111 14.632 16.3437 13.2645C14.9762 11.8971 14.208 10.0424 14.208 8.10856ZM6.91633 11.2336C6.36379 11.2336 5.83389 11.4531 5.44319 11.8438C5.05249 12.2345 4.83299 12.7644 4.83299 13.3169C4.83299 13.8694 5.05249 14.3993 5.44319 14.79C5.83389 15.1807 6.36379 15.4002 6.91633 15.4002C7.46886 15.4002 7.99876 15.1807 8.38946 14.79C8.78016 14.3993 8.99966 13.8694 8.99966 13.3169C8.99966 12.7644 8.78016 12.2345 8.38946 11.8438C7.99876 11.4531 7.46886 11.2336 6.91633 11.2336ZM0.666326 13.3169C0.666326 11.6593 1.32481 10.0696 2.49691 8.89748C3.66901 7.72537 5.25872 7.06689 6.91633 7.06689C8.57393 7.06689 10.1636 7.72537 11.3357 8.89748C12.5078 10.0696 13.1663 11.6593 13.1663 13.3169C13.1663 14.9745 12.5078 16.5642 11.3357 17.7363C10.1636 18.9084 8.57393 19.5669 6.91633 19.5669C5.25872 19.5669 3.66901 18.9084 2.49691 17.7363C1.32481 16.5642 0.666326 14.9745 0.666326 13.3169ZM33.9997 13.3169C33.9997 12.7644 34.2192 12.2345 34.6099 11.8438C35.0006 11.4531 35.5305 11.2336 36.083 11.2336C36.6355 11.2336 37.1654 11.4531 37.5561 11.8438C37.9468 12.2345 38.1663 12.7644 38.1663 13.3169C38.1663 13.8694 37.9468 14.3993 37.5561 14.79C37.1654 15.1807 36.6355 15.4002 36.083 15.4002C35.5305 15.4002 35.0006 15.1807 34.6099 14.79C34.2192 14.3993 33.9997 13.8694 33.9997 13.3169ZM36.083 7.06689C34.4254 7.06689 32.8357 7.72537 31.6636 8.89748C30.4915 10.0696 29.833 11.6593 29.833 13.3169C29.833 14.9745 30.4915 16.5642 31.6636 17.7363C32.8357 18.9084 34.4254 19.5669 36.083 19.5669C37.7406 19.5669 39.3303 18.9084 40.5024 17.7363C41.6745 16.5642 42.333 14.9745 42.333 13.3169C42.333 11.6593 41.6745 10.0696 40.5024 8.89748C39.3303 7.72537 37.7406 7.06689 36.083 7.06689ZM13.1663 24.7752C13.1663 21.9002 15.4997 19.5669 18.3747 19.5669H24.6247C27.4997 19.5669 29.833 21.9002 29.833 24.7752V29.9836C29.833 32.1937 28.955 34.3133 27.3922 35.8761C25.8294 37.4389 23.7098 38.3169 21.4997 38.3169C19.2895 38.3169 17.1699 37.4389 15.6071 35.8761C14.0443 34.3133 13.1663 32.1937 13.1663 29.9836V24.7752ZM18.3747 23.7336C18.0984 23.7336 17.8334 23.8433 17.6381 24.0387C17.4427 24.234 17.333 24.499 17.333 24.7752V29.9836C17.333 31.0886 17.772 32.1484 18.5534 32.9298C19.3348 33.7112 20.3946 34.1502 21.4997 34.1502C22.6047 34.1502 23.6645 33.7112 24.4459 32.9298C25.2273 32.1484 25.6663 31.0886 25.6663 29.9836V24.7752C25.6663 24.499 25.5566 24.234 25.3612 24.0387C25.1659 23.8433 24.9009 23.7336 24.6247 23.7336H18.3747ZM8.99966 24.7752C8.99966 23.5711 9.22466 22.4211 9.64133 21.3669L4.51216 22.7419C3.17866 23.0993 2.04165 23.9716 1.35098 25.167C0.660307 26.3624 0.472499 27.7831 0.828826 29.1169L1.63716 32.1377C1.92048 33.1949 2.40929 34.186 3.07567 35.0542C3.74205 35.9225 4.57295 36.651 5.52092 37.1981C6.46888 37.7452 7.51534 38.1002 8.60052 38.2429C9.6857 38.3855 10.7884 38.313 11.8455 38.0294L11.9163 38.0086C10.9552 36.8635 10.2072 35.5553 9.70799 34.1461C8.78725 34.1508 7.89088 33.8504 7.15891 33.2918C6.42695 32.7332 5.90062 31.9479 5.66216 31.0586L4.85383 28.0377C4.78259 27.7709 4.82026 27.4866 4.95857 27.2475C5.09687 27.0084 5.32447 26.834 5.59132 26.7627L8.99966 25.8461V24.7752ZM31.1497 38.0252L31.083 38.0127C32.033 36.8752 32.7872 35.5711 33.2913 34.1461C34.2114 34.1498 35.1068 33.849 35.8379 33.2905C36.569 32.732 37.0947 31.9472 37.333 31.0586L38.1372 28.0377C38.2084 27.7709 38.1707 27.4866 38.0324 27.2475C37.8941 27.0084 37.6665 26.834 37.3997 26.7627L33.9997 25.8502V24.7752C33.9997 23.5711 33.7747 22.4252 33.3622 21.3669L38.4788 22.7419C39.8123 23.0993 40.9493 23.9716 41.64 25.167C42.3307 26.3624 42.5185 27.7831 42.1622 29.1169L41.3538 32.1377C41.0705 33.1949 40.5817 34.186 39.9153 35.0542C39.2489 35.9225 38.418 36.651 37.4701 37.1981C36.5221 37.7452 35.4756 38.1002 34.3905 38.2429C33.3053 38.3855 32.2026 38.313 31.1455 38.0294" fill="#40CE96"/>
</svg>
