<svg width="51" height="51" viewBox="0 0 51 51" fill="none" xmlns="http://www.w3.org/2000/svg">
<path d="M43.1156 7.95115L48.3531 8.99803C48.6344 9.05428 48.8656 9.26053 48.9469 9.53865C48.9879 9.67376 48.9916 9.81746 48.9574 9.95447C48.9233 10.0915 48.8527 10.2167 48.7531 10.3168L44.4625 14.6105C43.9484 15.1218 43.2532 15.4093 42.5281 15.4105H38.9688L30.0312 24.3512C30.2018 24.995 30.2331 25.6677 30.1232 26.3246C30.0133 26.9815 29.7647 27.6074 29.394 28.1607C29.0232 28.714 28.5388 29.1819 27.973 29.5333C27.4072 29.8847 26.7731 30.1114 26.1128 30.1985C25.4525 30.2856 24.7812 30.2309 24.1437 30.0382C23.5062 29.8455 22.917 29.5192 22.4155 29.0809C21.914 28.6427 21.5116 28.1026 21.2352 27.4966C20.9588 26.8907 20.8147 26.2328 20.8125 25.5668C20.8123 24.8475 20.9777 24.1378 21.2959 23.4927C21.614 22.8475 22.0763 22.2843 22.647 21.8465C23.2178 21.4087 23.8816 21.1081 24.5871 20.968C25.2926 20.828 26.0209 20.8521 26.7156 21.0387L35.6562 12.0949V8.54178C35.6562 7.81678 35.9437 7.1199 36.4562 6.6074L40.75 2.31365C40.8501 2.21406 40.9753 2.14345 41.1123 2.10933C41.2493 2.07521 41.393 2.07887 41.5281 2.1199C41.8062 2.20115 42.0125 2.4324 42.0688 2.71365L43.1156 7.95115Z" fill="#40CE96"/>
<path d="M6.74967 25.5669C6.75289 28.248 7.33106 30.8973 8.4452 33.3359C9.55934 35.7746 11.1835 37.946 13.2082 39.7036C15.2329 41.4612 17.6109 42.7641 20.182 43.5245C22.753 44.2849 25.4572 44.4851 28.1122 44.1115C30.7672 43.7379 33.3112 42.7993 35.5725 41.359C37.8339 39.9186 39.7601 38.01 41.2211 35.7619C42.6822 33.5139 43.6441 30.9786 44.042 28.3272C44.4399 25.6757 44.2646 22.9698 43.5278 20.3919C43.4244 20.0907 43.3833 19.7716 43.4071 19.4541C43.4309 19.1365 43.5191 18.8271 43.6663 18.5447C43.8135 18.2623 44.0166 18.0129 44.2633 17.8115C44.51 17.6101 44.7951 17.461 45.1012 17.3734C45.4074 17.2857 45.7281 17.2612 46.044 17.3015C46.3599 17.3417 46.6643 17.4458 46.9387 17.6075C47.2131 17.7691 47.4517 17.9849 47.64 18.2417C47.8283 18.4985 47.9624 18.791 48.034 19.1013C49.4607 24.0935 49.1897 29.4182 47.2636 34.2398C45.3375 39.0614 41.8652 43.1073 37.3916 45.7425C32.918 48.3778 27.6961 49.4534 22.5451 48.8006C17.3942 48.1478 12.6057 45.8036 8.93092 42.1356C5.26012 38.4617 2.91335 33.6728 2.25906 28.5207C1.60478 23.3686 2.68003 18.1451 5.316 13.6702C7.95197 9.19541 11.9994 5.7227 16.8228 3.79732C21.6462 1.87194 26.9724 1.60292 31.9653 3.0325C32.5598 3.20629 33.0613 3.60834 33.3603 4.15079C33.6593 4.69324 33.7314 5.33199 33.5609 5.92743C33.3903 6.52288 32.991 7.0266 32.4502 7.32853C31.9094 7.63046 31.271 7.70604 30.6747 7.53875C27.8827 6.73703 24.9427 6.59496 22.0864 7.12376C19.2301 7.65255 16.5358 8.83774 14.2159 10.5858C11.896 12.334 10.014 14.5972 8.7183 17.197C7.42261 19.7968 6.74868 22.6621 6.74967 25.5669Z" fill="#40CE96"/>
<path d="M16.1245 25.5668C16.1247 27.2749 16.5913 28.9505 17.4738 30.413C18.3564 31.8754 19.6214 33.0691 21.1326 33.8654C22.6437 34.6616 24.3436 35.0302 26.0488 34.9313C27.754 34.8324 29.3999 34.2699 30.8089 33.3043C32.2177 32.3363 33.3349 31.0016 34.0399 29.4445C34.745 27.8874 35.0109 26.1672 34.8089 24.4699C34.7543 24.0581 34.8104 23.6391 34.9716 23.2561C35.1327 22.8732 35.393 22.5401 35.7256 22.2911C36.0583 22.0422 36.4513 21.8864 36.8641 21.8399C37.277 21.7933 37.6948 21.8576 38.0745 22.0262C38.4542 22.1926 38.7829 22.4567 39.0272 22.7916C39.2715 23.1264 39.4226 23.5201 39.4652 23.9324C39.8047 26.8328 39.233 29.7668 37.8293 32.3275C36.4256 34.8881 34.2596 36.9482 31.6319 38.2219C29.0042 39.4956 26.0451 39.9197 23.1655 39.4353C20.2858 38.951 17.6283 37.5821 15.5619 35.5189C13.4955 33.4556 12.1227 30.8002 11.6339 27.9213C11.1452 25.0424 11.5648 22.0827 12.8345 19.4531C14.1042 16.8234 16.161 14.6543 18.7195 13.2467C21.278 11.8391 24.2112 11.2629 27.112 11.5981C27.4226 11.6269 27.7244 11.7174 27.9995 11.8644C28.2747 12.0113 28.5178 12.2117 28.7145 12.4538C28.9112 12.6959 29.0576 12.9748 29.1451 13.2743C29.2326 13.5737 29.2595 13.8875 29.2242 14.1975C29.1888 14.5074 29.0919 14.8072 28.9392 15.0792C28.7865 15.3512 28.581 15.59 28.3348 15.7815C28.0886 15.9731 27.8067 16.1136 27.5055 16.1948C27.2043 16.276 26.8899 16.2962 26.5808 16.2543C25.2672 16.1018 23.9362 16.2289 22.6753 16.6273C21.4143 17.0257 20.2519 17.6863 19.2644 18.5658C18.2769 19.4453 17.4866 20.5238 16.9454 21.7304C16.4043 22.937 16.1245 24.2444 16.1245 25.5668Z" fill="#40CE96"/>
</svg>
