<svg width="39" height="43" viewBox="0 0 39 43" fill="none" xmlns="http://www.w3.org/2000/svg">
<path d="M16.9164 0.733643C20.9636 0.733018 24.8728 2.20511 27.9144 4.87518C30.9559 7.54525 32.9219 11.2308 33.4456 15.2441L38.1331 22.617C38.4414 23.1024 38.3789 23.8253 37.6643 24.1336L33.5831 25.8795V31.9836C33.5831 33.0887 33.1441 34.1485 32.3627 34.9299C31.5813 35.7113 30.5215 36.1503 29.4164 36.1503H25.2518L25.2497 42.4003H6.49973V34.7045C6.49973 32.2461 5.5914 29.9191 3.90598 27.8191C1.94286 25.3679 0.712185 22.412 0.355755 19.292C-0.000674248 16.1719 0.531644 13.0146 1.89138 10.1839C3.25111 7.35315 5.38293 4.96418 8.0412 3.29221C10.6995 1.62025 13.776 0.733328 16.9164 0.733643ZM16.9164 4.90031C14.5614 4.90021 12.2542 5.56541 10.2607 6.81926C8.26718 8.07312 6.66844 9.86463 5.64864 11.9874C4.62883 14.1102 4.22945 16.4779 4.4965 18.8177C4.76355 21.1576 5.68616 23.3744 7.15806 25.2128C9.43723 28.0545 10.6664 31.2899 10.6664 34.7045V38.2336H21.0831L21.0872 31.9836H29.4164V23.1336L32.6456 21.7503L29.431 16.6982L29.3122 15.7774C28.9183 12.7687 27.4433 10.006 25.1625 8.00465C22.8817 6.00329 19.9508 4.89991 16.9164 4.90031ZM15.8122 12.7399L16.9164 13.8441L18.0206 12.7399C18.708 12.0756 19.6289 11.708 20.5848 11.7161C21.5408 11.7242 22.4553 12.1074 23.1314 12.7833C23.8075 13.4591 24.1911 14.3734 24.1996 15.3294C24.2081 16.2853 23.8408 17.2063 23.1768 17.8941L16.9164 24.1566L10.656 17.8941C10.3078 17.5577 10.0302 17.1553 9.83918 16.7105C9.6482 16.2656 9.54772 15.7872 9.54361 15.3031C9.5395 14.819 9.63185 14.339 9.81525 13.8909C9.99866 13.4429 10.2695 13.0359 10.6118 12.6937C10.9542 12.3514 11.3613 12.0808 11.8094 11.8976C12.2575 11.7143 12.7376 11.6222 13.2217 11.6265C13.7058 11.6308 14.1842 11.7315 14.629 11.9226C15.0737 12.1138 15.476 12.3916 15.8122 12.7399Z" fill="#40CE96"/>
</svg>
