<svg width="26" height="27" viewBox="0 0 26 27" fill="none" xmlns="http://www.w3.org/2000/svg">
<path d="M12.4583 2.52515C10.8781 2.52515 9.36256 3.1529 8.24516 4.2703C7.12775 5.38771 6.5 6.90323 6.5 8.48348C6.5 10.0637 7.12775 11.5793 8.24516 12.6967C9.36256 13.8141 10.8781 14.4418 12.4583 14.4418C14.0386 14.4418 15.5541 13.8141 16.6715 12.6967C17.7889 11.5793 18.4167 10.0637 18.4167 8.48348C18.4167 6.90323 17.7889 5.38771 16.6715 4.2703C15.5541 3.1529 14.0386 2.52515 12.4583 2.52515ZM20.566 14.4223L21.2182 15.2868C22.2127 16.6038 22.7505 18.2092 22.7499 19.8596C22.7493 21.5099 22.2104 23.115 21.2149 24.4312L20.5617 25.2946L18.8338 23.9881L19.487 23.1247C20.1982 22.1845 20.5833 21.0378 20.5837 19.8588C20.584 18.6799 20.1998 17.533 19.4892 16.5922L18.837 15.7277L20.566 14.4223Z" fill="#9E9E9E"/>
<path d="M17.539 16.7071L18.1933 17.5716C18.6904 18.2301 18.9591 19.0327 18.9587 19.8578C18.9584 20.6828 18.6889 21.4852 18.1912 22.1432L17.5379 23.0077L15.81 21.7012L16.4633 20.8367C16.6765 20.5546 16.7919 20.2105 16.7919 19.8569C16.7919 19.5032 16.6765 19.1591 16.4633 18.877L15.8111 18.0125L17.539 16.7071ZM13.9488 15.5251C12.9805 16.7618 12.4555 18.2878 12.4582 19.8585C12.4582 21.4932 13.015 22.9969 13.9488 24.1918H2.1665V22.0251C2.1665 20.3012 2.85132 18.6479 4.07031 17.429C5.2893 16.21 6.9426 15.5251 8.6665 15.5251H13.9488Z" fill="#9E9E9E"/>
</svg>
