<svg width="136" height="131" viewBox="0 0 136 131" fill="none" xmlns="http://www.w3.org/2000/svg">
<path d="M80.9359 88.5585C89.9267 89.6543 98.7612 91.7832 107.264 94.903C106.05 95.1824 104.968 95.8657 104.193 96.8411C103.418 97.8164 102.998 99.026 103 100.271V117.173C89.1454 127.172 71.8954 131.281 55.0205 128.6C38.1456 125.919 23.0182 116.667 12.9443 102.866C13.3039 102.232 13.6892 101.59 14.1002 100.939C16.5147 97.0093 31.0789 90.6648 51.7306 88.5071C53.0385 85.2502 53.4466 81.7015 52.9122 78.2326C52.9122 77.6419 52.7581 77.1025 52.681 76.563C51.519 75.5585 50.5524 74.348 49.8298 72.9926C48.7726 70.346 47.9141 67.6243 47.2612 64.8501C47.3121 65.4611 47.1683 66.0726 46.8502 66.5968C45.3348 68.0095 43.9476 65.5693 43.7421 63.4373C43.5367 61.3054 40.891 57.5809 40.2746 55.4746C40.0733 54.5141 40.1366 53.5168 40.4578 52.5894C40.779 51.662 41.346 50.8393 42.0983 50.2089C42.3492 50.0914 42.6271 50.0437 42.9028 50.0708C43.1786 50.0979 43.4419 50.1989 43.6651 50.363C42.7442 46.6536 42.4491 42.8164 42.7918 39.0097C42.9489 36.6706 43.6085 34.3929 44.7255 32.3317C45.8425 30.2705 47.3908 28.4744 49.2648 27.0656C49.2648 27.0656 51.8333 19.6423 66.2433 19.6936C81.8863 19.6936 83.4532 28.2215 83.4532 28.2215C83.4532 28.2215 91.5443 33.6156 88.3592 50.3374C88.5667 50.181 88.814 50.086 89.0729 50.0633C89.3318 50.0406 89.5917 50.091 89.8233 50.2089C90.5824 50.8338 91.1543 51.6561 91.4761 52.5852C91.7978 53.5142 91.8571 54.5141 91.6471 55.4746C91.0563 57.5809 88.3849 61.2797 88.1794 63.4373C87.9739 65.595 86.5868 68.0095 85.0713 66.5968C84.9013 66.3625 84.7951 66.0882 84.7631 65.8005C84.1227 68.5446 83.2637 71.2332 82.1945 73.8403C81.4234 75.347 80.3266 76.6631 78.9837 77.6933C78.6724 79.9599 78.7593 82.2634 79.2406 84.5001C79.5338 85.9511 80.1099 87.3301 80.9359 88.5585Z" fill="#AD66E6" stroke="#2B2B2B" stroke-width="2.5" stroke-linecap="round" stroke-linejoin="round"/>
<path d="M129.071 94.7739H108.496C105.46 94.7739 102.999 97.235 102.999 100.271V120.845C102.999 123.881 105.46 126.342 108.496 126.342H129.071C132.106 126.342 134.567 123.881 134.567 120.845V100.271C134.567 97.235 132.106 94.7739 129.071 94.7739Z" fill="#AD66E6" stroke="#2B2B2B" stroke-width="2.5" stroke-linecap="round" stroke-linejoin="round"/>
<path d="M126.627 108.749H120.565V102.687H116.969V108.749H110.907V112.345H116.969V118.407H120.565V112.345H126.627V108.749Z" fill="#2B2B2B"/>
</svg>
