<svg width="140" height="136" viewBox="0 0 140 136" fill="none" xmlns="http://www.w3.org/2000/svg">
<circle cx="68.1807" cy="67.625" r="67.375" fill="#FFF1EC"/>
<path d="M84.9359 93.5585C93.9267 94.6543 102.761 96.7832 111.264 99.903C110.05 100.182 108.968 100.866 108.193 101.841C107.418 102.816 106.998 104.026 107 105.271V122.173C93.1454 132.172 75.8954 136.281 59.0205 133.6C42.1456 130.919 27.0182 121.667 16.9443 107.866C17.3039 107.232 17.6892 106.59 18.1002 105.939C20.5147 102.009 35.0789 95.6648 55.7306 93.5071C57.0385 90.2502 57.4466 86.7015 56.9122 83.2326C56.9122 82.6419 56.7581 82.1025 56.681 81.563C55.519 80.5585 54.5524 79.348 53.8298 77.9926C52.7726 75.346 51.9141 72.6243 51.2612 69.8501C51.3121 70.4611 51.1683 71.0726 50.8502 71.5968C49.3348 73.0095 47.9476 70.5693 47.7421 68.4373C47.5367 66.3054 44.891 62.5809 44.2746 60.4746C44.0733 59.5141 44.1366 58.5168 44.4578 57.5894C44.779 56.662 45.346 55.8393 46.0983 55.2089C46.3492 55.0914 46.6271 55.0437 46.9028 55.0708C47.1786 55.0979 47.4419 55.1989 47.6651 55.363C46.7442 51.6536 46.4491 47.8164 46.7918 44.0097C46.9489 41.6706 47.6085 39.3929 48.7255 37.3317C49.8425 35.2705 51.3908 33.4744 53.2648 32.0656C53.2648 32.0656 55.8333 24.6423 70.2433 24.6936C85.8863 24.6936 87.4532 33.2215 87.4532 33.2215C87.4532 33.2215 95.5443 38.6156 92.3592 55.3374C92.5667 55.181 92.814 55.086 93.0729 55.0633C93.3318 55.0406 93.5917 55.091 93.8233 55.2089C94.5824 55.8338 95.1543 56.6561 95.4761 57.5852C95.7978 58.5142 95.8571 59.5141 95.6471 60.4746C95.0563 62.5809 92.3849 66.2797 92.1794 68.4373C91.9739 70.595 90.5868 73.0095 89.0713 71.5968C88.9013 71.3625 88.7951 71.0882 88.7631 70.8005C88.1227 73.5446 87.2637 76.2332 86.1945 78.8403C85.4234 80.347 84.3266 81.6631 82.9837 82.6933C82.6724 84.9599 82.7593 87.2634 83.2406 89.5001C83.5338 90.9511 84.1099 92.3301 84.9359 93.5585Z" fill="#AD66E6" stroke="#2B2B2B" stroke-width="2.5" stroke-linecap="round" stroke-linejoin="round"/>
<path d="M133.071 99.7739H112.496C109.46 99.7739 106.999 102.235 106.999 105.271V125.845C106.999 128.881 109.46 131.342 112.496 131.342H133.071C136.106 131.342 138.567 128.881 138.567 125.845V105.271C138.567 102.235 136.106 99.7739 133.071 99.7739Z" fill="#AD66E6" stroke="#2B2B2B" stroke-width="2.5" stroke-linecap="round" stroke-linejoin="round"/>
<path d="M130.627 113.749H124.565V107.687H120.969V113.749H114.907V117.345H120.969V123.407H124.565V117.345H130.627V113.749Z" fill="#2B2B2B"/>
</svg>
