<svg width="28" height="28" viewBox="0 0 28 28" fill="none" xmlns="http://www.w3.org/2000/svg">
<path d="M10.208 7.29167C10.208 6.28605 10.6075 5.32163 11.3186 4.61055C12.0296 3.89948 12.9941 3.5 13.9997 3.5C15.0053 3.5 15.9697 3.89948 16.6808 4.61055C17.3919 5.32163 17.7913 6.28605 17.7913 7.29167C17.7913 8.29728 17.3919 9.2617 16.6808 9.97278C15.9697 10.6839 15.0053 11.0833 13.9997 11.0833C12.9941 11.0833 12.0296 10.6839 11.3186 9.97278C10.6075 9.2617 10.208 8.29728 10.208 7.29167ZM5.83301 5.83333C4.90475 5.83333 4.01451 6.20208 3.35813 6.85846C2.70176 7.51484 2.33301 8.40508 2.33301 9.33333C2.33301 10.2616 2.70176 11.1518 3.35813 11.8082C4.01451 12.4646 4.90475 12.8333 5.83301 12.8333C6.76127 12.8333 7.6515 12.4646 8.30788 11.8082C8.96426 11.1518 9.33301 10.2616 9.33301 9.33333C9.33301 8.40508 8.96426 7.51484 8.30788 6.85846C7.6515 6.20208 6.76127 5.83333 5.83301 5.83333ZM22.1663 5.83333C21.2381 5.83333 20.3478 6.20208 19.6915 6.85846C19.0351 7.51484 18.6663 8.40508 18.6663 9.33333C18.6663 10.2616 19.0351 11.1518 19.6915 11.8082C20.3478 12.4646 21.2381 12.8333 22.1663 12.8333C23.0946 12.8333 23.9848 12.4646 24.6412 11.8082C25.2976 11.1518 25.6663 10.2616 25.6663 9.33333C25.6663 8.40508 25.2976 7.51484 24.6412 6.85846C23.9848 6.20208 23.0946 5.83333 22.1663 5.83333ZM10.7913 12.8333C10.2499 12.8333 9.73055 13.0484 9.34766 13.4313C8.96478 13.8142 8.74967 14.3335 8.74967 14.875V19.25C8.74967 20.6424 9.3028 21.9777 10.2874 22.9623C11.2719 23.9469 12.6073 24.5 13.9997 24.5C15.3921 24.5 16.7274 23.9469 17.712 22.9623C18.6966 21.9777 19.2497 20.6424 19.2497 19.25V14.875C19.2497 14.3335 19.0346 13.8142 18.6517 13.4313C18.2688 13.0484 17.7495 12.8333 17.208 12.8333H10.7913ZM7.71134 13.9743C7.62656 14.2613 7.58379 14.5616 7.58301 14.875V19.25C7.58205 20.2052 7.79476 21.1486 8.20556 22.0109C8.61635 22.8733 9.21484 23.6329 9.95717 24.234C9.27825 24.4591 8.5605 24.5431 7.84794 24.4809C7.13539 24.4186 6.44308 24.2114 5.81348 23.872C5.18389 23.5325 4.63029 23.068 4.18666 22.507C3.74304 21.9459 3.41874 21.3001 3.23367 20.6092L2.40301 17.5105C2.33348 17.2515 2.31567 16.9813 2.35057 16.7155C2.38547 16.4496 2.47242 16.1932 2.60643 15.9609C2.74045 15.7286 2.91891 15.525 3.13163 15.3617C3.34435 15.1984 3.58715 15.0786 3.84617 15.0092L7.71134 13.9743ZM18.0422 24.2328C18.7842 23.6319 19.3825 22.8727 19.7933 22.0108C20.2041 21.1489 20.4169 20.206 20.4163 19.2512V14.8762C20.4156 14.5604 20.3728 14.2594 20.288 13.9732L24.1543 15.0092C24.6772 15.1494 25.123 15.4916 25.3936 15.9604C25.6642 16.4293 25.7376 16.9864 25.5975 17.5093L24.7668 20.6092C24.5817 21.3001 24.2572 21.9459 23.8135 22.507C23.3697 23.068 22.816 23.5324 22.1863 23.8718C21.5566 24.2111 20.8641 24.4182 20.1515 24.4803C19.4389 24.5423 18.7211 24.4581 18.0422 24.2328Z" fill="white"/>
</svg>
