<svg width="28" height="28" viewBox="0 0 28 28" fill="none" xmlns="http://www.w3.org/2000/svg">
<g clip-path="url(#clip0_218_108323)">
<path d="M6.22233 14.7779V8.55566H3.889C3.27016 8.55566 2.67667 8.8015 2.23908 9.23908C1.8015 9.67667 1.55566 10.2702 1.55566 10.889V24.889C1.55682 25.0334 1.59818 25.1747 1.67511 25.297C1.75204 25.4192 1.8615 25.5177 1.99122 25.5812C2.11619 25.6381 2.25398 25.6608 2.39059 25.6471C2.5272 25.6335 2.65775 25.5839 2.769 25.5034L6.77455 22.5557H17.2279C17.5227 22.5644 17.8161 22.5125 18.09 22.4032C18.3639 22.2939 18.6125 22.1295 18.8203 21.9202C19.0281 21.711 19.1907 21.4613 19.2981 21.1866C19.4055 20.9119 19.4553 20.6182 19.4446 20.3234V19.4446H10.889C9.65132 19.4446 8.46434 18.9529 7.58917 18.0777C6.714 17.2025 6.22233 16.0156 6.22233 14.7779Z" fill="white"/>
<path d="M24.1112 3.11108H10.889C10.2702 3.11108 9.67667 3.35692 9.23908 3.7945C8.8015 4.23209 8.55566 4.82558 8.55566 5.44442V14.7778C8.55566 15.3966 8.8015 15.9901 9.23908 16.4277C9.67667 16.8653 10.2702 17.1111 10.889 17.1111H21.4279L25.1457 19.9966C25.2562 20.0784 25.3864 20.1293 25.523 20.1443C25.6596 20.1594 25.7978 20.1379 25.9234 20.0822C26.0558 20.0192 26.1676 19.92 26.2461 19.7961C26.3245 19.6723 26.3664 19.5288 26.3668 19.3822V5.44442C26.3671 4.83882 26.132 4.25682 25.7111 3.8214C25.2902 3.38599 24.7165 3.13127 24.1112 3.11108Z" fill="white"/>
</g>
<defs>
<clipPath id="clip0_218_108323">
<rect width="28" height="28" fill="white"/>
</clipPath>
</defs>
</svg>
