<svg width="28" height="28" viewBox="0 0 28 28" fill="none" xmlns="http://www.w3.org/2000/svg">
<path d="M14.0003 14.0001C12.717 14.0001 11.6184 13.5431 10.7045 12.6292C9.7906 11.7154 9.33366 10.6167 9.33366 9.33341C9.33366 8.05008 9.7906 6.95147 10.7045 6.03758C11.6184 5.12369 12.717 4.66675 14.0003 4.66675C15.2837 4.66675 16.3823 5.12369 17.2962 6.03758C18.21 6.95147 18.667 8.05008 18.667 9.33341C18.667 10.6167 18.21 11.7154 17.2962 12.6292C16.3823 13.5431 15.2837 14.0001 14.0003 14.0001ZM4.66699 21.0001V20.0667C4.66699 19.4056 4.83733 18.7982 5.17799 18.2444C5.51866 17.6906 5.97055 17.2675 6.53366 16.9751C7.73921 16.3723 8.96421 15.9204 10.2087 15.6194C11.4531 15.3184 12.717 15.1675 14.0003 15.1667C15.2837 15.166 16.5475 15.3169 17.792 15.6194C19.0364 15.922 20.2614 16.3739 21.467 16.9751C22.0309 17.2667 22.4832 17.6899 22.8238 18.2444C23.1645 18.799 23.3344 19.4064 23.3337 20.0667V21.0001C23.3337 21.6417 23.1054 22.1912 22.6488 22.6486C22.1923 23.1059 21.6428 23.3342 21.0003 23.3334H7.00033C6.35866 23.3334 5.80955 23.1051 5.35299 22.6486C4.89644 22.192 4.66777 21.6425 4.66699 21.0001Z" fill="white"/>
</svg>
