<svg width="120" height="133" viewBox="0 0 120 133" fill="none" xmlns="http://www.w3.org/2000/svg">
<circle cx="60" cy="60" r="60" fill="#FFF1EC"/>
<path d="M67.6594 110.501C67.6374 110.435 67.6155 110.37 67.5904 110.304C67.5653 110.238 67.5464 110.169 67.5213 110.103C67.4962 110.037 67.4774 109.971 67.4523 109.905C67.4272 109.839 67.4084 109.77 67.3833 109.704C67.3582 109.639 67.3394 109.573 67.3143 109.507C67.2892 109.441 67.2703 109.372 67.2452 109.306L67.1762 109.108C67.1543 109.039 67.1292 108.973 67.1072 108.908L67.0382 108.71C67.0162 108.641 66.9911 108.575 66.9691 108.509L66.9001 108.311C66.8782 108.242 66.8531 108.177 66.8311 108.111L66.7652 107.9C66.7432 107.831 66.7181 107.766 66.6962 107.7L66.624 107.502C66.6021 107.433 66.5801 107.367 66.555 107.301C66.5299 107.235 66.5111 107.169 66.486 107.103C66.4609 107.038 66.4421 106.969 66.417 106.903C66.3919 106.837 66.373 106.771 66.3479 106.705C65.3251 103.593 62.1625 101.309 58.6831 101.309C55.3103 101.309 52.3768 103.273 51.1532 106.04C51.1218 106.103 51.0936 106.169 51.0653 106.231L50.9806 106.426C50.9492 106.489 50.921 106.551 50.8928 106.617C50.8645 106.683 50.8331 106.746 50.8049 106.809L50.7202 107C50.6888 107.066 50.6606 107.129 50.6324 107.194C50.6041 107.26 50.5727 107.32 50.5445 107.386C50.5163 107.452 50.4849 107.511 50.4567 107.577L50.3719 107.769C50.3406 107.831 50.3123 107.897 50.2841 107.96C50.2559 108.023 50.2245 108.089 50.1962 108.151L50.1115 108.346C50.0802 108.409 50.0519 108.471 50.0237 108.537C49.9954 108.603 49.9641 108.666 49.9358 108.729L49.8511 108.92C49.8197 108.986 49.7915 109.049 49.7633 109.115C49.735 109.181 49.7037 109.24 49.6754 109.306L49.5907 109.497C49.5593 109.56 49.5311 109.626 49.5029 109.689C49.4746 109.752 49.4432 109.817 49.415 109.883C48.8767 111.03 48.6002 112.281 48.6055 113.548C48.6055 118.599 52.9666 122.728 58.3599 122.728C63.6372 122.728 68.2273 118.599 68.2273 113.548C68.2263 112.585 68.0575 111.629 67.7284 110.724C67.7064 110.633 67.6845 110.567 67.6594 110.501Z" fill="#2B2B2B"/>
<path d="M60.1956 41.0088C44.0156 41.0088 33 50.531 33 64.4174V65.6724C33.0029 65.8798 33.0593 66.0829 33.1638 66.2621C33.2682 66.4413 33.4171 66.5905 33.5961 66.6952C33.6638 66.7604 33.7373 66.8192 33.8157 66.8709C33.8837 66.937 33.9584 66.9959 34.0385 67.0466C34.1065 67.1127 34.1811 67.1716 34.2613 67.2223C34.3286 67.2891 34.4034 67.3481 34.484 67.398C34.5509 67.4641 34.6245 67.523 34.7036 67.5737C34.7716 67.6408 34.8462 67.7008 34.9264 67.7526C34.9952 67.8177 35.0698 67.8765 35.1492 67.9283C35.2173 67.9942 35.292 68.053 35.3719 68.104C35.439 68.1698 35.5126 68.2287 35.5915 68.2797C35.6652 68.3507 35.7462 68.4138 35.8331 68.4679C35.8971 68.5262 35.9653 68.5796 36.0371 68.6279C36.1059 68.6931 36.1804 68.7519 36.2598 68.8036C36.3275 68.8688 36.401 68.9276 36.4794 68.9793C36.5482 69.0445 36.6228 69.1033 36.7022 69.155C36.7704 69.2209 36.845 69.2798 36.925 69.3307C36.992 69.3966 37.0656 69.4555 37.1446 69.5064C37.2128 69.5723 37.2874 69.6312 37.3674 69.6821C37.4344 69.748 37.508 69.8069 37.587 69.8578C37.6558 69.923 37.7303 69.9818 37.8097 70.0335C37.8768 70.0994 37.9504 70.1582 38.0294 70.2092C38.3919 70.5282 38.8649 70.6926 39.3471 70.6673L49.4372 71.0438C50.4757 71.0438 51.0404 70.5731 51.0404 69.5346V68.4993C51.0404 64.3484 54.4352 61.4274 59.8253 61.4274C64.7292 61.4274 68.0298 64.066 68.0298 68.1228C68.0299 68.5851 67.9858 69.0463 67.898 69.5001C62.8342 76.139 49.6537 79.0663 49.6537 91.9519V95.0517C49.6537 96.3067 50.3408 97 51.6052 97H63.7534C65.0084 97 65.705 96.3129 65.705 95.0517V92.9841C65.705 82.5426 86.2459 82.4265 86.2459 63.3789C86.2459 49.9568 76.0304 41.0088 60.1956 41.0088Z" fill="#2B2B2B"/>
<path d="M49.6388 95.0586V91.9588C49.6388 76.0079 69.8346 75.3302 69.8346 63.96C69.8346 59.0248 65.8187 55.8026 59.8512 55.8026C53.3096 55.8026 49.1838 59.3605 49.1838 64.4086V65.6636C49.1838 66.9186 48.4936 67.5022 47.2323 67.5022L34.9523 67.041C33.8071 67.041 33.0039 66.4668 33.0039 65.6636V64.4086C33.0039 50.5222 44.0196 41 60.1995 41C76.0343 41 86.2404 49.9481 86.2404 63.3764C86.2404 82.424 65.6995 82.5401 65.6995 92.9816V95.0492C65.6995 96.3041 65.0092 96.9975 63.7479 96.9975H51.5903C50.3259 97.0069 49.6388 96.3198 49.6388 95.0586ZM48.6065 113.548C48.6065 108.499 53.0806 104.367 58.4739 104.367C63.6381 104.367 68.2282 108.499 68.2282 113.548C68.2282 118.596 63.6287 122.712 58.3609 122.712C52.9613 122.712 48.6065 118.583 48.6065 113.548Z" fill="#AD66E6" stroke="#2B2B2B" stroke-width="0.75876" stroke-miterlimit="10"/>
<path d="M57.8583 133C67.321 133 74.992 131.285 74.992 129.169C74.992 127.054 67.321 125.338 57.8583 125.338C48.3956 125.338 40.7246 127.054 40.7246 129.169C40.7246 131.285 48.3956 133 57.8583 133Z" fill="#2B2B2B"/>
</svg>
